<svg xmlns="http://www.w3.org/2000/svg" viewBox="0 0 512 512" width="512" height="512" role="img" aria-label="論文レーダー 軸受・ロータ">
<rect width="512" height="512" fill="#1a5e54"/>
<!-- ハウジング（外の太リング＝軸受） -->
<circle cx="256" cy="256" r="182" fill="none" stroke="#faf9f5" stroke-width="20"/>
<!-- 内周（軸受内面）薄く -->
<circle cx="256" cy="256" r="150" fill="none" stroke="#faf9f5" stroke-width="6" stroke-opacity="0.45"/>
<!-- ジャーナル軸（偏心した塗り円） -->
<circle cx="256" cy="230" r="96" fill="#faf9f5"/>
<!-- ふれまわり軌道（whirl らせん・軸上に描く） -->
<path d="M256.00 224.00 L256.15 223.87 L256.32 223.74 L256.48 223.61 L256.66 223.49 L256.84 223.38 L257.02 223.27 L257.22 223.16 L257.41 223.06 L257.62 222.97 L257.83 222.88 L258.04 222.80 L258.26 222.72 L258.49 222.66 L258.72 222.59 L258.95 222.54 L259.19 222.49 L259.44 222.45 L259.68 222.42 L259.94 222.39 L260.19 222.38 L260.45 222.37 L260.71 222.37 L260.97 222.37 L261.24 222.39 L261.51 222.42 L261.78 222.45 L262.05 222.49 L262.33 222.54 L262.60 222.60 L262.88 222.67 L263.16 222.75 L263.43 222.84 L263.71 222.94 L263.99 223.05 L264.26 223.16 L264.54 223.29 L264.81 223.43 L265.09 223.57 L265.36 223.73 L265.63 223.89 L265.89 224.07 L266.16 224.25 L266.42 224.44 L266.67 224.65 L266.93 224.86 L267.18 225.08 L267.42 225.31 L267.66 225.55 L267.90 225.80 L268.13 226.06 L268.35 226.33 L268.57 226.60 L268.78 226.89 L268.99 227.18 L269.19 227.48 L269.38 227.79 L269.56 228.11 L269.74 228.44 L269.91 228.77 L270.07 229.11 L270.22 229.46 L270.37 229.82 L270.50 230.18 L270.63 230.55 L270.75 230.93 L270.85 231.31 L270.95 231.70 L271.04 232.09 L271.11 232.49 L271.18 232.90 L271.23 233.30 L271.27 233.72 L271.31 234.14 L271.33 234.56 L271.34 234.98 L271.33 235.41 L271.32 235.84 L271.29 236.28 L271.25 236.71 L271.20 237.15 L271.14 237.59 L271.06 238.03 L270.97 238.48 L270.87 238.92 L270.75 239.36 L270.63 239.81 L270.49 240.25 L270.33 240.69 L270.16 241.13 L269.98 241.57 L269.79 242.01 L269.58 242.44 L269.37 242.87 L269.13 243.30 L268.89 243.72 L268.63 244.14 L268.36 244.56 L268.07 244.97 L267.77 245.38 L267.46 245.78 L267.14 246.17 L266.80 246.56 L266.45 246.94 L266.09 247.31 L265.72 247.68 L265.33 248.04 L264.94 248.39 L264.53 248.73 L264.11 249.06 L263.68 249.39 L263.23 249.70 L262.78 250.00 L262.31 250.30 L261.84 250.58 L261.35 250.85 L260.86 251.11 L260.35 251.36 L259.84 251.59 L259.31 251.81 L258.78 252.02 L258.24 252.22 L257.69 252.41 L257.14 252.58 L256.57 252.73 L256.00 252.88 L255.42 253.00 L254.84 253.12 L254.25 253.21 L253.65 253.30 L253.05 253.36 L252.44 253.42 L251.83 253.45 L251.22 253.47 L250.60 253.48 L249.98 253.46 L249.35 253.43 L248.72 253.39 L248.10 253.33 L247.46 253.25 L246.83 253.15 L246.20 253.04 L245.57 252.91 L244.94 252.76 L244.31 252.59 L243.68 252.41 L243.05 252.21 L242.43 251.99 L241.80 251.76 L241.19 251.51 L240.57 251.24 L239.96 250.95 L239.35 250.64 L238.75 250.32 L238.16 249.98 L237.57 249.63 L236.99 249.25 L236.41 248.86 L235.84 248.46 L235.28 248.03 L234.73 247.59 L234.19 247.14 L233.66 246.66 L233.14 246.17 L232.63 245.67 L232.13 245.15 L231.64 244.62 L231.16 244.06 L230.70 243.50 L230.24 242.92 L229.81 242.33 L229.38 241.72 L228.97 241.10 L228.57 240.46 L228.19 239.81 L227.82 239.15 L227.47 238.48 L227.14 237.80 L226.82 237.10 L226.52 236.40 L226.24 235.68 L225.97 234.95 L225.72 234.21 L225.49 233.47 L225.28 232.71 L225.09 231.94 L224.91 231.17 L224.76 230.39 L224.62 229.61 L224.51 228.81 L224.41 228.01 L224.34 227.21 L224.28 226.40 L224.25 225.58 L224.24 224.76 L224.25 223.94 L224.28 223.12 L224.33 222.29 L224.40 221.46 L224.50 220.63 L224.62 219.80 L224.75 218.97 L224.91 218.14 L225.10 217.31 L225.30 216.49 L225.53 215.66 L225.78 214.84 L226.05 214.02 L226.34 213.21 L226.66 212.40 L227.00 211.59 L227.36 210.80 L227.74 210.00 L228.14 209.22 L228.57 208.44 L229.01 207.67 L229.48 206.91 L229.97 206.16 L230.48 205.42 L231.01 204.69 L231.56 203.98 L232.13 203.27 L232.73 202.57 L233.34 201.89 L233.97 201.23 L234.62 200.57 L235.29 199.93 L235.98 199.31 L236.68 198.70 L237.41 198.11 L238.15 197.53 L238.91 196.97 L239.69 196.43 L240.48 195.91 L241.29 195.41 L242.11 194.92 L242.95 194.46 L243.81 194.01 L244.67 193.59 L245.56 193.19 L246.45 192.81 L247.36 192.45 L248.28 192.11 L249.21 191.79 L250.15 191.50 L251.10 191.23 L252.06 190.99 L253.04 190.77 L254.02 190.57 L255.00 190.40 L256.00 190.25 L257.00 190.13 L258.01 190.03 L259.02 189.96 L260.04 189.91 L261.07 189.89 L262.09 189.90 L263.12 189.93 L264.15 189.99 L265.19 190.08 L266.22 190.19 L267.26 190.33 L268.29 190.50 L269.32 190.69 L270.35 190.91 L271.38 191.16 L272.40 191.43 L273.42 191.73 L274.44 192.06 L275.45 192.42 L276.45 192.80 L277.45 193.21 L278.44 193.65 L279.42 194.11 L280.39 194.60 L281.35 195.11 L282.30 195.65 L283.24 196.22 L284.17 196.81 L285.08 197.43 L285.98 198.07 L286.87 198.74 L287.74 199.43 L288.60 200.15 L289.44 200.89 L290.27 201.65 L291.08 202.44 L291.87 203.25 L292.64 204.08 L293.39 204.93 L294.12 205.81 L294.83 206.70 L295.52 207.62 L296.19 208.56 L296.84 209.51 L297.46 210.49 L298.06 211.48 L298.64 212.49 L299.19 213.52 L299.72 214.57 L300.22 215.63 L300.70 216.71 L301.15 217.80 L301.57 218.91 L301.97 220.03 L302.34 221.16 L302.68 222.31 L302.99 223.46 L303.28 224.63 L303.53 225.81 L303.76 227.00 L303.95 228.19 L304.12 229.40 L304.25 230.61 L304.36 231.82 L304.43 233.05 L304.47 234.27 L304.48 235.51 L304.46 236.74 L304.41 237.98 L304.33 239.22 L304.21 240.46 L304.07 241.70 L303.89 242.94 L303.68 244.18 L303.43 245.41 L303.16 246.64 L302.85 247.87 L302.51 249.10 L302.14 250.31 L301.74 251.52 L301.30 252.73 L300.84 253.92 L300.34 255.11 L299.81 256.28 L299.25 257.45 L298.66 258.60 L298.04 259.74 L297.38 260.87 L296.70 261.98 L295.99 263.08 L295.25 264.17 L294.48 265.23 L293.68 266.28 L292.85 267.31 L291.99 268.33 L291.11 269.32 L290.19 270.29 L289.26 271.24 L288.29 272.17 L287.30 273.08 L286.28 273.96 L285.24 274.82 L284.18 275.66 L283.09 276.47 L281.98 277.25 L280.84 278.01 L279.69 278.74 L278.51 279.45 L277.32 280.12 L276.10 280.77 L274.86 281.38 L273.61 281.97 L272.34 282.52 L271.05 283.05 L269.75 283.54 L268.43 284.00 L267.09 284.43 L265.75 284.82 L264.38 285.18 L263.01 285.51 L261.63 285.80 L260.23 286.06 L258.83 286.28 L257.42 286.47 L256.00 286.63 L254.57 286.74 L253.14 286.82 L251.70 286.87 L250.26 286.88 L248.82 286.85 L247.37 286.78 L245.92 286.68 L244.48 286.54 L243.03 286.37 L241.58 286.15 L240.14 285.90 L238.70 285.62 L237.26 285.29 L235.83 284.93 L234.41 284.53 L232.99 284.10 L231.58 283.62 L230.19 283.11 L228.80 282.57 L227.42 281.99 L226.05 281.37 L224.70 280.72 L223.36 280.03 L222.04 279.30 L220.73 278.54" fill="none" stroke="#1a5e54" stroke-width="10" stroke-linecap="round" stroke-linejoin="round"/>
<path d="M 220.7 278.5 L 246.7 276.8 L 234.4 300.7 Z" fill="#1a5e54"/>
<!-- 軸中心点 -->
<circle cx="256" cy="230" r="7" fill="#1a5e54"/>
</svg>